<svg width="40" height="40" viewBox="0 0 40 40" fill="none" xmlns="http://www.w3.org/2000/svg">
<g clip-path="url(#clip0_2200_10920)">
<path d="M38.8281 30.5142C38.1809 30.5142 37.6562 31.0388 37.6562 31.686C37.6562 32.3826 37.0895 32.9493 36.393 32.9493H3.60703C2.91047 32.9493 2.34375 32.3826 2.34375 31.686C2.34375 31.0388 1.81906 30.5142 1.17188 30.5142C0.524687 30.5142 0 31.0388 0 31.686V36.3931C0 38.382 1.61812 40.0001 3.60703 40.0001H14.0918L19.9707 36.8491L25.8496 40.0001H36.393C38.3819 40.0001 40 38.382 40 36.3931V31.686C40 31.0388 39.4753 30.5142 38.8281 30.5142Z" fill="#61E140"/>
<path d="M38.8281 30.5142C38.1809 30.5142 37.6562 31.0388 37.6562 31.686C37.6562 32.3826 37.0895 32.9493 36.393 32.9493H19.9707V36.8491L25.8496 40.0001H36.393C38.3819 40.0001 40 38.382 40 36.3931V31.686C40 31.0388 39.4753 30.5142 38.8281 30.5142Z" fill="#1DC576"/>
<path d="M38.8281 25.8071C38.1809 25.8071 37.6562 26.3318 37.6562 26.979C37.6562 27.6756 37.0895 28.2423 36.393 28.2423H3.60703C2.91047 28.2423 2.34375 27.6756 2.34375 26.979C2.34375 26.3318 1.81906 25.8071 1.17188 25.8071C0.524687 25.8071 0 26.3318 0 26.979V31.686C0 33.6749 1.61812 35.2931 3.60703 35.2931H36.393C38.3819 35.2931 40 33.6749 40 31.686V26.979C40 26.3318 39.4753 25.8071 38.8281 25.8071Z" fill="#1DC576"/>
<path d="M38.8281 25.8071C38.1809 25.8071 37.6562 26.3318 37.6562 26.979C37.6562 27.6756 37.0895 28.2423 36.393 28.2423H19.9707V35.2931H36.393C38.3819 35.2931 40 33.6749 40 31.686V26.979C40 26.3318 39.4753 25.8071 38.8281 25.8071Z" fill="#14A19C"/>
<path d="M39.998 22.3197C39.9795 21.6869 39.4617 21.1833 38.8287 21.1821C38.828 21.1821 38.8273 21.1821 38.8266 21.1821C38.1945 21.1821 37.6761 21.6835 37.6554 22.3155C37.6329 22.9995 37.0784 23.5353 36.393 23.5353H3.60703C2.92164 23.5353 2.36719 22.9995 2.34469 22.3155C2.32391 21.6835 1.80562 21.1821 1.17352 21.1821C1.17281 21.1821 1.17203 21.1821 1.17141 21.1821C0.538359 21.1833 0.0207031 21.6869 0.00210938 22.3197C0.0009375 22.3585 0 22.3964 0 22.4353V26.979C0 28.9679 1.61812 30.586 3.60703 30.586H36.393C38.3819 30.586 40 28.9679 40 26.979V22.4353C40 22.3964 39.9991 22.3585 39.998 22.3197Z" fill="#61E140"/>
<path d="M38.8287 21.1821C38.828 21.1821 38.8273 21.1821 38.8266 21.1821C38.1945 21.1821 37.6761 21.6835 37.6554 22.3155C37.6329 22.9995 37.0784 23.5353 36.393 23.5353H19.9707V30.586H36.393C38.3819 30.586 40 28.9679 40 26.979V22.4353C40 22.3964 39.9991 22.3586 39.998 22.3197C39.9794 21.6869 39.4616 21.1833 38.8287 21.1821Z" fill="#1DC576"/>
<path d="M39.998 17.6127C39.9795 16.9799 39.4617 16.4763 38.8287 16.4751C38.828 16.4751 38.8273 16.4751 38.8266 16.4751C38.1945 16.4751 37.6761 16.9765 37.6554 17.6085C37.6328 18.2924 37.0784 18.8282 36.393 18.8282H3.60703C2.92164 18.8282 2.36719 18.2924 2.34469 17.6085C2.32391 16.9765 1.80562 16.4751 1.17352 16.4751C1.17281 16.4751 1.17203 16.4751 1.17141 16.4751C0.538359 16.4763 0.0207031 16.9799 0.00210938 17.6127C0.0009375 17.6515 0 17.6894 0 17.7282V22.272C0 22.3107 0.0009375 22.3496 0.0021875 22.3924C0.0664062 24.3475 1.64984 25.8789 3.60703 25.8789H36.393C38.3502 25.8789 39.9335 24.3474 39.998 22.3883C39.9991 22.3496 40 22.3106 40 22.2719V17.7281C40 17.6894 39.9991 17.6515 39.998 17.6127Z" fill="#1DC576"/>
<path d="M38.8287 16.4751C38.828 16.4751 38.8273 16.4751 38.8266 16.4751C38.1945 16.4751 37.6761 16.9765 37.6554 17.6085C37.6328 18.2924 37.0784 18.8282 36.393 18.8282H19.9707V25.879H36.393C38.3502 25.879 39.9335 24.3475 39.998 22.3884C39.9991 22.3496 40 22.3107 40 22.272V17.7282C40 17.6894 39.9991 17.6516 39.998 17.6127C39.9794 16.9799 39.4616 16.4763 38.8287 16.4751Z" fill="#14A19C"/>
<path d="M36.393 21.1719H3.60703C1.64984 21.1719 0.0664844 19.6404 0.0021875 17.6854C0.0009375 17.6425 0 17.6036 0 17.5648V3.60703C0 1.61812 1.61812 0 3.60703 0H14.0918L19.9707 2.63023L25.8496 0H36.393C38.3819 0 40 1.61812 40 3.60703V17.5648C40 17.6036 39.9991 17.6425 39.998 17.6813C39.9335 19.6404 38.3502 21.1719 36.393 21.1719Z" fill="#61E140"/>
<path d="M36.393 21.1719C38.3502 21.1719 39.9335 19.6404 39.998 17.6813C39.9991 17.6425 40 17.6036 40 17.5648V3.60703C40 1.61812 38.3819 0 36.393 0H25.8496L19.9707 2.63023V21.1719H36.393Z" fill="#1DC576"/>
<path d="M17.8906 10.5859L14.974 16.4648H8.23242C7.58523 16.4648 7.06055 15.9402 7.06055 15.293C7.06055 14.6414 6.53047 14.1113 5.87891 14.1113C5.23172 14.1113 4.70703 13.5866 4.70703 12.9395V8.23242C4.70703 7.58523 5.23172 7.06055 5.87891 7.06055C6.53047 7.06055 7.06055 6.53047 7.06055 5.87891C7.06055 5.23172 7.58523 4.70703 8.23242 4.70703H14.974L17.8906 10.5859Z" fill="#1DC576"/>
<path d="M34.0625 7.06055C33.4109 7.06055 32.8809 6.53047 32.8809 5.87891C32.8809 5.23172 32.3562 4.70703 31.709 4.70703H19.9707V16.4648H31.709C32.3562 16.4648 32.8809 15.9402 32.8809 15.293C32.8809 14.6414 33.4109 14.1113 34.0625 14.1113C34.7097 14.1113 35.2344 13.5866 35.2344 12.9395V8.23242C35.2344 7.58523 34.7097 7.06055 34.0625 7.06055Z" fill="#14A19C"/>
<path d="M14.0918 0H25.8496V40H14.0918V0Z" fill="#FFD15E"/>
<path d="M19.9707 0H25.8496V40H19.9707V0Z" fill="#FFBA27"/>
</g>
<defs>
<clipPath id="clip0_2200_10920">
<rect width="40" height="40" fill="white"/>
</clipPath>
</defs>
</svg>
